<svg width="14" height="14" viewBox="0 0 14 14" fill="none" xmlns="http://www.w3.org/2000/svg">
<path d="M12.8333 4.97002V2.32169C12.8333 1.49919 12.46 1.16669 11.5325 1.16669H9.17583C8.24833 1.16669 7.875 1.49919 7.875 2.32169V4.96419C7.875 5.79252 8.24833 6.11919 9.17583 6.11919H11.5325C12.46 6.12502 12.8333 5.79252 12.8333 4.97002Z" fill="white" fill-opacity="0.18"/>
<path d="M12.8333 11.5325V9.17583C12.8333 8.24833 12.46 7.875 11.5325 7.875H9.17583C8.24833 7.875 7.875 8.24833 7.875 9.17583V11.5325C7.875 12.46 8.24833 12.8333 9.17583 12.8333H11.5325C12.46 12.8333 12.8333 12.46 12.8333 11.5325Z" fill="white" fill-opacity="0.18"/>
<path d="M6.12484 4.97002V2.32169C6.12484 1.49919 5.7515 1.16669 4.824 1.16669H2.46734C1.53984 1.16669 1.1665 1.49919 1.1665 2.32169V4.96419C1.1665 5.79252 1.53984 6.11919 2.46734 6.11919H4.824C5.7515 6.12502 6.12484 5.79252 6.12484 4.97002Z" fill="white" fill-opacity="0.18"/>
<path d="M6.12484 11.5325V9.17583C6.12484 8.24833 5.7515 7.875 4.824 7.875H2.46734C1.53984 7.875 1.1665 8.24833 1.1665 9.17583V11.5325C1.1665 12.46 1.53984 12.8333 2.46734 12.8333H4.824C5.7515 12.8333 6.12484 12.46 6.12484 11.5325Z" fill="white" fill-opacity="0.18"/>
</svg>
