<svg width="38" height="38" viewBox="0 0 38 38" fill="none" xmlns="http://www.w3.org/2000/svg">
<g filter="url(#filter0_d_12_715)">
<rect x="4.5" y="0.5" width="29" height="29" rx="9.5" fill="url(#paint0_linear_12_715)" stroke="#21262E"/>
<path d="M24.8333 12.97V10.3217C24.8333 9.49919 24.46 9.16669 23.5325 9.16669H21.1758C20.2483 9.16669 19.875 9.49919 19.875 10.3217V12.9642C19.875 13.7925 20.2483 14.1192 21.1758 14.1192H23.5325C24.46 14.125 24.8333 13.7925 24.8333 12.97Z" fill="white" fill-opacity="0.18"/>
<path d="M24.8333 19.5325V17.1758C24.8333 16.2483 24.46 15.875 23.5325 15.875H21.1758C20.2483 15.875 19.875 16.2483 19.875 17.1758V19.5325C19.875 20.46 20.2483 20.8333 21.1758 20.8333H23.5325C24.46 20.8333 24.8333 20.46 24.8333 19.5325Z" fill="white" fill-opacity="0.18"/>
<path d="M18.1248 12.97V10.3217C18.1248 9.49919 17.7515 9.16669 16.824 9.16669H14.4673C13.5398 9.16669 13.1665 9.49919 13.1665 10.3217V12.9642C13.1665 13.7925 13.5398 14.1192 14.4673 14.1192H16.824C17.7515 14.125 18.1248 13.7925 18.1248 12.97Z" fill="white" fill-opacity="0.18"/>
<path d="M18.1248 19.5325V17.1758C18.1248 16.2483 17.7515 15.875 16.824 15.875H14.4673C13.5398 15.875 13.1665 16.2483 13.1665 17.1758V19.5325C13.1665 20.46 13.5398 20.8333 14.4673 20.8333H16.824C17.7515 20.8333 18.1248 20.46 18.1248 19.5325Z" fill="white" fill-opacity="0.18"/>
</g>
<defs>
<filter id="filter0_d_12_715" x="0" y="0" width="38" height="38" filterUnits="userSpaceOnUse" color-interpolation-filters="sRGB">
<feFlood flood-opacity="0" result="BackgroundImageFix"/>
<feColorMatrix in="SourceAlpha" type="matrix" values="0 0 0 0 0 0 0 0 0 0 0 0 0 0 0 0 0 0 127 0" result="hardAlpha"/>
<feOffset dy="4"/>
<feGaussianBlur stdDeviation="2"/>
<feComposite in2="hardAlpha" operator="out"/>
<feColorMatrix type="matrix" values="0 0 0 0 0 0 0 0 0 0 0 0 0 0 0 0 0 0 0.25 0"/>
<feBlend mode="normal" in2="BackgroundImageFix" result="effect1_dropShadow_12_715"/>
<feBlend mode="normal" in="SourceGraphic" in2="effect1_dropShadow_12_715" result="shape"/>
</filter>
<linearGradient id="paint0_linear_12_715" x1="4" y1="2.5" x2="30" y2="30" gradientUnits="userSpaceOnUse">
<stop stop-color="#21262E"/>
<stop offset="1" stop-color="#21262E" stop-opacity="0"/>
</linearGradient>
</defs>
</svg>
